<svg xmlns="http://www.w3.org/2000/svg" viewBox="0 0 1200 300" width="1200" height="300">
<rect x="0" y="0" width="1200" height="300" fill="#000000"/>
<g><circle cx="389" cy="45" r="1" fill="#12303a"/><circle cx="781" cy="22" r="1" fill="#12303a"/><circle cx="643" cy="110" r="1" fill="#12303a"/><circle cx="70" cy="152" r="1" fill="#12303a"/><circle cx="45" cy="130" r="1" fill="#12303a"/><circle cx="84" cy="27" r="1" fill="#12303a"/><circle cx="509" cy="248" r="1" fill="#12303a"/><circle cx="149" cy="67" r="1" fill="#12303a"/><circle cx="753" cy="284" r="1" fill="#12303a"/><circle cx="693" cy="119" r="1" fill="#12303a"/><circle cx="1172" cy="14" r="1" fill="#12303a"/><circle cx="1030" cy="87" r="1" fill="#12303a"/><circle cx="173" cy="35" r="1" fill="#12303a"/><circle cx="370" cy="245" r="1" fill="#12303a"/><circle cx="217" cy="174" r="1" fill="#12303a"/><circle cx="767" cy="112" r="1" fill="#12303a"/><circle cx="657" cy="19" r="1" fill="#12303a"/><circle cx="72" cy="62" r="1" fill="#12303a"/><circle cx="816" cy="128" r="1" fill="#12303a"/><circle cx="377" cy="176" r="1" fill="#12303a"/><circle cx="544" cy="90" r="1" fill="#12303a"/><circle cx="953" cy="210" r="1" fill="#12303a"/><circle cx="293" cy="172" r="1" fill="#12303a"/><circle cx="630" cy="263" r="1" fill="#12303a"/><circle cx="875" cy="86" r="1" fill="#12303a"/><circle cx="1176" cy="35" r="1" fill="#12303a"/><circle cx="502" cy="227" r="1" fill="#12303a"/><circle cx="182" cy="147" r="1" fill="#12303a"/><circle cx="47" cy="200" r="1" fill="#12303a"/><circle cx="917" cy="172" r="1" fill="#12303a"/><circle cx="1051" cy="94" r="1" fill="#12303a"/><circle cx="834" cy="178" r="1" fill="#12303a"/><circle cx="696" cy="137" r="1" fill="#12303a"/><circle cx="1008" cy="283" r="1" fill="#12303a"/><circle cx="569" cy="199" r="1" fill="#12303a"/><circle cx="73" cy="210" r="1" fill="#12303a"/><circle cx="777" cy="298" r="1" fill="#12303a"/><circle cx="986" cy="85" r="1" fill="#12303a"/><circle cx="463" cy="201" r="1" fill="#12303a"/><circle cx="27" cy="139" r="1" fill="#12303a"/><circle cx="202" cy="35" r="1" fill="#12303a"/><circle cx="71" cy="230" r="1" fill="#12303a"/><circle cx="155" cy="74" r="1" fill="#12303a"/><circle cx="469" cy="261" r="1" fill="#12303a"/><circle cx="97" cy="135" r="1" fill="#12303a"/><circle cx="659" cy="265" r="1" fill="#12303a"/><circle cx="983" cy="259" r="1" fill="#12303a"/><circle cx="334" cy="125" r="1" fill="#12303a"/><circle cx="431" cy="265" r="1" fill="#12303a"/><circle cx="1149" cy="45" r="1" fill="#12303a"/><circle cx="211" cy="70" r="1" fill="#12303a"/><circle cx="280" cy="145" r="1" fill="#12303a"/><circle cx="707" cy="79" r="1" fill="#12303a"/><circle cx="5" cy="126" r="1" fill="#12303a"/><circle cx="443" cy="170" r="1" fill="#12303a"/><circle cx="1144" cy="207" r="1" fill="#12303a"/><circle cx="619" cy="185" r="1" fill="#12303a"/><circle cx="811" cy="16" r="1" fill="#12303a"/><circle cx="1079" cy="234" r="1" fill="#12303a"/><circle cx="1049" cy="239" r="1" fill="#12303a"/><circle cx="471" cy="120" r="1" fill="#12303a"/><circle cx="124" cy="190" r="1" fill="#12303a"/><circle cx="75" cy="20" r="1" fill="#12303a"/><circle cx="251" cy="49" r="1" fill="#12303a"/><circle cx="408" cy="16" r="1" fill="#12303a"/><circle cx="0" cy="45" r="1" fill="#12303a"/><circle cx="122" cy="109" r="1" fill="#12303a"/><circle cx="31" cy="262" r="1" fill="#12303a"/><circle cx="737" cy="45" r="1" fill="#12303a"/><circle cx="303" cy="104" r="1" fill="#12303a"/><circle cx="437" cy="37" r="1" fill="#12303a"/><circle cx="1019" cy="298" r="1" fill="#12303a"/><circle cx="559" cy="145" r="1" fill="#12303a"/><circle cx="103" cy="31" r="1" fill="#12303a"/><circle cx="411" cy="79" r="1" fill="#12303a"/><circle cx="995" cy="48" r="1" fill="#12303a"/><circle cx="28" cy="285" r="1" fill="#12303a"/><circle cx="634" cy="44" r="1" fill="#12303a"/><circle cx="652" cy="8" r="1" fill="#12303a"/><circle cx="634" cy="294" r="1" fill="#12303a"/><circle cx="1036" cy="209" r="1" fill="#12303a"/><circle cx="313" cy="110" r="1" fill="#12303a"/><circle cx="200" cy="232" r="1" fill="#12303a"/><circle cx="639" cy="234" r="1" fill="#12303a"/><circle cx="396" cy="67" r="1" fill="#12303a"/><circle cx="974" cy="295" r="1" fill="#12303a"/><circle cx="1023" cy="242" r="1" fill="#12303a"/><circle cx="982" cy="222" r="1" fill="#12303a"/><circle cx="272" cy="155" r="1" fill="#12303a"/><circle cx="427" cy="9" r="1" fill="#12303a"/><circle cx="34" cy="84" r="1" fill="#12303a"/><circle cx="311" cy="208" r="1" fill="#12303a"/><circle cx="1148" cy="134" r="1" fill="#12303a"/><circle cx="1124" cy="296" r="1" fill="#12303a"/><circle cx="1146" cy="109" r="1" fill="#12303a"/><circle cx="265" cy="68" r="1" fill="#12303a"/><circle cx="236" cy="61" r="1" fill="#12303a"/><circle cx="749" cy="270" r="1" fill="#12303a"/><circle cx="1009" cy="144" r="1" fill="#12303a"/><circle cx="784" cy="240" r="1" fill="#12303a"/><circle cx="102" cy="198" r="1" fill="#12303a"/><circle cx="1092" cy="235" r="1" fill="#12303a"/><circle cx="900" cy="143" r="1" fill="#12303a"/><circle cx="214" cy="237" r="1" fill="#12303a"/><circle cx="399" cy="240" r="1" fill="#12303a"/><circle cx="1166" cy="119" r="1" fill="#12303a"/><circle cx="482" cy="284" r="1" fill="#12303a"/><circle cx="870" cy="51" r="1" fill="#12303a"/><circle cx="152" cy="45" r="1" fill="#12303a"/><circle cx="1086" cy="242" r="1" fill="#12303a"/><circle cx="175" cy="248" r="1" fill="#12303a"/><circle cx="1176" cy="197" r="1" fill="#12303a"/><circle cx="420" cy="165" r="1" fill="#12303a"/><circle cx="157" cy="4" r="1" fill="#12303a"/><circle cx="1165" cy="195" r="1" fill="#12303a"/><circle cx="632" cy="280" r="1" fill="#12303a"/><circle cx="521" cy="262" r="1" fill="#12303a"/><circle cx="991" cy="63" r="1" fill="#12303a"/><circle cx="302" cy="88" r="1" fill="#12303a"/><circle cx="289" cy="176" r="1" fill="#12303a"/><circle cx="311" cy="126" r="1" fill="#12303a"/><circle cx="157" cy="273" r="1" fill="#12303a"/><circle cx="425" cy="137" r="1" fill="#12303a"/><circle cx="700" cy="271" r="1" fill="#12303a"/><circle cx="505" cy="275" r="1" fill="#12303a"/><circle cx="602" cy="160" r="1" fill="#12303a"/><circle cx="628" cy="6" r="1" fill="#12303a"/><circle cx="528" cy="55" r="1" fill="#12303a"/><circle cx="5" cy="240" r="1" fill="#12303a"/><circle cx="207" cy="142" r="1" fill="#12303a"/><circle cx="870" cy="167" r="1" fill="#12303a"/><circle cx="391" cy="156" r="1" fill="#12303a"/><circle cx="667" cy="235" r="1" fill="#12303a"/><circle cx="127" cy="168" r="1" fill="#12303a"/><circle cx="298" cy="83" r="1" fill="#12303a"/><circle cx="927" cy="152" r="1" fill="#12303a"/><circle cx="674" cy="228" r="1" fill="#12303a"/><circle cx="1095" cy="133" r="1" fill="#12303a"/><circle cx="735" cy="152" r="1" fill="#12303a"/><circle cx="615" cy="208" r="1" fill="#12303a"/></g>
<polygon points="158.0,73.0 262.0,73.0 262.0,91.0 225.0,91.0 225.0,179.0 262.0,179.0 262.0,197.0 158.0,197.0 158.0,179.0 195.0,179.0 195.0,91.0 158.0,91.0" fill="none" stroke="#3ff0ff" stroke-width="1.6" stroke-linejoin="round" opacity="0.35"/>
<line x1="118.0" y1="103.0" x2="158.0" y2="73.0" stroke="#3ff0ff" stroke-width="1.6" opacity="0.55"/>
<line x1="222.0" y1="103.0" x2="262.0" y2="73.0" stroke="#3ff0ff" stroke-width="1.6" opacity="0.55"/>
<line x1="222.0" y1="227.0" x2="262.0" y2="197.0" stroke="#3ff0ff" stroke-width="1.6" opacity="0.55"/>
<line x1="118.0" y1="227.0" x2="158.0" y2="197.0" stroke="#3ff0ff" stroke-width="1.6" opacity="0.55"/>
<line x1="185.0" y1="121.0" x2="225.0" y2="91.0" stroke="#3ff0ff" stroke-width="1.6" opacity="0.55"/>
<line x1="185.0" y1="209.0" x2="225.0" y2="179.0" stroke="#3ff0ff" stroke-width="1.6" opacity="0.55"/>
<line x1="155.0" y1="209.0" x2="195.0" y2="179.0" stroke="#3ff0ff" stroke-width="1.6" opacity="0.55"/>
<line x1="155.0" y1="121.0" x2="195.0" y2="91.0" stroke="#3ff0ff" stroke-width="1.6" opacity="0.55"/>
<polygon points="118.0,103.0 222.0,103.0 222.0,121.0 185.0,121.0 185.0,209.0 222.0,209.0 222.0,227.0 118.0,227.0 118.0,209.0 155.0,209.0 155.0,121.0 118.0,121.0" fill="none" stroke="#3ff0ff" stroke-width="2.2" stroke-linejoin="round" opacity="1.0"/>
<circle cx="510" cy="135" r="58" fill="none" stroke="#ff8a3c" stroke-width="1.6" opacity="0.35"/>
<line x1="517.5" y1="198.3" x2="557.5" y2="168.3" stroke="#ff8a3c" stroke-width="1.6" opacity="0.55"/>
<line x1="422.5" y1="131.7" x2="462.5" y2="101.7" stroke="#ff8a3c" stroke-width="1.6" opacity="0.55"/>
<line x1="436.7" y1="212.5" x2="476.7" y2="182.5" stroke="#ff8a3c" stroke-width="1.6" opacity="0.55"/>
<line x1="503.3" y1="117.5" x2="543.3" y2="87.5" stroke="#ff8a3c" stroke-width="1.6" opacity="0.55"/>
<circle cx="470" cy="165" r="58" fill="none" stroke="#ff8a3c" stroke-width="2.2" opacity="1"/>
<circle cx="510" cy="135" r="40" fill="none" stroke="#ff8a3c" stroke-width="1.3" opacity="0.3"/>
<circle cx="470" cy="165" r="40" fill="none" stroke="#ff8a3c" stroke-width="1.8" opacity="0.85"/>
<polygon points="754.0,79.0 780.0,79.0 780.0,165.0 866.0,165.0 866.0,191.0 754.0,191.0" fill="none" stroke="#6cff8a" stroke-width="1.6" stroke-linejoin="round" opacity="0.35"/>
<line x1="714.0" y1="109.0" x2="754.0" y2="79.0" stroke="#6cff8a" stroke-width="1.6" opacity="0.55"/>
<line x1="740.0" y1="109.0" x2="780.0" y2="79.0" stroke="#6cff8a" stroke-width="1.6" opacity="0.55"/>
<line x1="826.0" y1="195.0" x2="866.0" y2="165.0" stroke="#6cff8a" stroke-width="1.6" opacity="0.55"/>
<line x1="826.0" y1="221.0" x2="866.0" y2="191.0" stroke="#6cff8a" stroke-width="1.6" opacity="0.55"/>
<line x1="714.0" y1="221.0" x2="754.0" y2="191.0" stroke="#6cff8a" stroke-width="1.6" opacity="0.55"/>
<line x1="740.0" y1="195.0" x2="780.0" y2="165.0" stroke="#6cff8a" stroke-width="1.6" opacity="0.55"/>
<polygon points="714.0,109.0 740.0,109.0 740.0,195.0 826.0,195.0 826.0,221.0 714.0,221.0" fill="none" stroke="#6cff8a" stroke-width="2.2" stroke-linejoin="round" opacity="1.0"/>
<polygon points="1055.0,80.0 1165.0,80.0 1165.0,190.0 1055.0,190.0" fill="none" stroke="#ff5cf0" stroke-width="1.6" stroke-linejoin="round" opacity="0.35"/>
<line x1="1015.0" y1="110.0" x2="1055.0" y2="80.0" stroke="#ff5cf0" stroke-width="1.6" opacity="0.55"/>
<line x1="1125.0" y1="110.0" x2="1165.0" y2="80.0" stroke="#ff5cf0" stroke-width="1.6" opacity="0.55"/>
<line x1="1125.0" y1="220.0" x2="1165.0" y2="190.0" stroke="#ff5cf0" stroke-width="1.6" opacity="0.55"/>
<line x1="1015.0" y1="220.0" x2="1055.0" y2="190.0" stroke="#ff5cf0" stroke-width="1.6" opacity="0.55"/>
<polygon points="1015.0,110.0 1125.0,110.0 1125.0,220.0 1015.0,220.0" fill="none" stroke="#ff5cf0" stroke-width="2.2" stroke-linejoin="round" opacity="1.0"/>
<polygon points="1075.0,100.0 1145.0,100.0 1145.0,170.0 1075.0,170.0" fill="none" stroke="#ff5cf0" stroke-width="1.3" stroke-linejoin="round" opacity="0.3"/>
<polygon points="1035.0,130.0 1105.0,130.0 1105.0,200.0 1035.0,200.0" fill="none" stroke="#ff5cf0" stroke-width="1.8" stroke-linejoin="round" opacity="0.85"/>
</svg>