<?xml version="1.0" encoding="UTF-8"?>
<svg width="64" height="64" viewBox="0 0 64 64" xmlns="http://www.w3.org/2000/svg">
  <!-- 3D wireframe cube -->
  <!-- Front face -->
  <polygon points="12,42 32,52 32,28 12,18" fill="rgba(0,102,204,0.15)" stroke="#0066cc" stroke-width="2.5" stroke-linejoin="round"/>
  <!-- Right face -->
  <polygon points="32,52 52,42 52,18 32,28" fill="rgba(0,153,255,0.1)" stroke="#0099ff" stroke-width="2.5" stroke-linejoin="round"/>
  <!-- Top face -->
  <polygon points="12,18 32,8 52,18 32,28" fill="rgba(0,180,255,0.12)" stroke="#00aaff" stroke-width="2.5" stroke-linejoin="round"/>
  <!-- Corner grips -->
  <circle cx="12" cy="18" r="2.5" fill="#00cc66"/>
  <circle cx="32" cy="8" r="2.5" fill="#00cc66"/>
  <circle cx="52" cy="18" r="2.5" fill="#00cc66"/>
  <circle cx="32" cy="28" r="2.5" fill="#00cc66"/>
  <circle cx="12" cy="42" r="2.5" fill="#00cc66"/>
  <circle cx="32" cy="52" r="2.5" fill="#00cc66"/>
  <circle cx="52" cy="42" r="2.5" fill="#00cc66"/>
  <!-- Point cloud scatter dots -->
  <circle cx="22" cy="23" r="1.5" fill="#ff6600" opacity="0.9"/>
  <circle cx="26" cy="20" r="1.3" fill="#ff8800" opacity="0.85"/>
  <circle cx="30" cy="17" r="1.4" fill="#ff6600" opacity="0.9"/>
  <circle cx="38" cy="19" r="1.5" fill="#ff8800" opacity="0.85"/>
  <circle cx="42" cy="22" r="1.3" fill="#ff6600" opacity="0.9"/>
  <circle cx="20" cy="32" r="1.4" fill="#ff8800" opacity="0.8"/>
  <circle cx="24" cy="36" r="1.3" fill="#ff6600" opacity="0.85"/>
  <circle cx="36" cy="34" r="1.5" fill="#ff8800" opacity="0.8"/>
  <circle cx="42" cy="30" r="1.3" fill="#ff6600" opacity="0.85"/>
  <circle cx="44" cy="36" r="1.4" fill="#ff8800" opacity="0.8"/>
</svg>
